<svg id="Filled" height="512" viewBox="0 0 512 512" width="512" xmlns="http://www.w3.org/2000/svg"><rect fill="#57a6bd" height="464" rx="16" width="352" x="80" y="24"/><path d="m112 120h288v96h-288z" fill="#67c5e0"/><path d="m304 56h96v32h-96z" fill="#ffd33a"/><g fill="#e9eef2"><path d="m312 368h128v48h-128z" transform="matrix(0 1 -1 0 768 16)"/><path d="m112 408h48v48h-48z" transform="matrix(0 1 -1 0 568 296)"/><path d="m192 408h48v48h-48z" transform="matrix(0 1 -1 0 648 216)"/><path d="m272 408h48v48h-48z" transform="matrix(0 1 -1 0 728 136)"/><path d="m112 328h48v48h-48z" transform="matrix(0 1 -1 0 488 216)"/><path d="m192 328h48v48h-48z" transform="matrix(0 1 -1 0 568 136)"/><path d="m272 328h48v48h-48z" transform="matrix(0 1 -1 0 648 56)"/><path d="m112 248h48v48h-48z" transform="matrix(0 1 -1 0 408 136)"/><path d="m192 248h48v48h-48z" transform="matrix(0 1 -1 0 488 56)"/><path d="m272 248h48v48h-48z" transform="matrix(0 1 -1 0 568 -24)"/><circle cx="376" cy="272" r="24"/></g><circle cx="128" cy="72" fill="#eb423f" r="16"/><circle cx="192" cy="72" fill="#cfdb8c" r="16"/><path d="m440 40a24.028 24.028 0 0 0 -24-24h-320a24.028 24.028 0 0 0 -24 24v432a24.028 24.028 0 0 0 24 24h320a24.028 24.028 0 0 0 24-24zm-16 432a8.009 8.009 0 0 1 -8 8h-320a8.009 8.009 0 0 1 -8-8v-432a8.009 8.009 0 0 1 8-8h320a8.009 8.009 0 0 1 8 8z"/><path d="m400 112h-288a8 8 0 0 0 -8 8v96a8 8 0 0 0 8 8h288a8 8 0 0 0 8-8v-96a8 8 0 0 0 -8-8zm-8 96h-272v-80h272z"/><path d="m400 48h-96a8 8 0 0 0 -8 8v32a8 8 0 0 0 8 8h96a8 8 0 0 0 8-8v-32a8 8 0 0 0 -8-8zm-8 32h-80v-16h80z"/><path d="m400 320h-48a8 8 0 0 0 -8 8v128a8 8 0 0 0 8 8h48a8 8 0 0 0 8-8v-128a8 8 0 0 0 -8-8zm-8 128h-32v-112h32z"/><path d="m160 400h-48a8 8 0 0 0 -8 8v48a8 8 0 0 0 8 8h48a8 8 0 0 0 8-8v-48a8 8 0 0 0 -8-8zm-8 48h-32v-32h32z"/><path d="m240 400h-48a8 8 0 0 0 -8 8v48a8 8 0 0 0 8 8h48a8 8 0 0 0 8-8v-48a8 8 0 0 0 -8-8zm-8 48h-32v-32h32z"/><path d="m320 400h-48a8 8 0 0 0 -8 8v48a8 8 0 0 0 8 8h48a8 8 0 0 0 8-8v-48a8 8 0 0 0 -8-8zm-8 48h-32v-32h32z"/><path d="m160 320h-48a8 8 0 0 0 -8 8v48a8 8 0 0 0 8 8h48a8 8 0 0 0 8-8v-48a8 8 0 0 0 -8-8zm-8 48h-32v-32h32z"/><path d="m240 320h-48a8 8 0 0 0 -8 8v48a8 8 0 0 0 8 8h48a8 8 0 0 0 8-8v-48a8 8 0 0 0 -8-8zm-8 48h-32v-32h32z"/><path d="m320 320h-48a8 8 0 0 0 -8 8v48a8 8 0 0 0 8 8h48a8 8 0 0 0 8-8v-48a8 8 0 0 0 -8-8zm-8 48h-32v-32h32z"/><path d="m160 240h-48a8 8 0 0 0 -8 8v48a8 8 0 0 0 8 8h48a8 8 0 0 0 8-8v-48a8 8 0 0 0 -8-8zm-8 48h-32v-32h32z"/><path d="m240 240h-48a8 8 0 0 0 -8 8v48a8 8 0 0 0 8 8h48a8 8 0 0 0 8-8v-48a8 8 0 0 0 -8-8zm-8 48h-32v-32h32z"/><path d="m320 240h-48a8 8 0 0 0 -8 8v48a8 8 0 0 0 8 8h48a8 8 0 0 0 8-8v-48a8 8 0 0 0 -8-8zm-8 48h-32v-32h32z"/><path d="m376 240a32 32 0 1 0 32 32 32.036 32.036 0 0 0 -32-32zm0 48a16 16 0 1 1 16-16 16.019 16.019 0 0 1 -16 16z"/><path d="m128 96a24 24 0 1 0 -24-24 24.027 24.027 0 0 0 24 24zm0-32a8 8 0 1 1 -8 8 8.009 8.009 0 0 1 8-8z"/><path d="m192 96a24 24 0 1 0 -24-24 24.027 24.027 0 0 0 24 24zm0-32a8 8 0 1 1 -8 8 8.009 8.009 0 0 1 8-8z"/></svg>